<svg width="18" height="18" viewBox="0 0 18 18" fill="none" xmlns="http://www.w3.org/2000/svg">
<path fill-rule="evenodd" clip-rule="evenodd" d="M10.5 3.75H12C13.0484 3.75 13.9293 4.46706 14.1791 5.4375H15.75C16.0607 5.4375 16.3125 5.68934 16.3125 6C16.3125 6.31066 16.0607 6.5625 15.75 6.5625H14.1791C13.9293 7.53294 13.0484 8.25 12 8.25H10.5C9.25736 8.25 8.25 7.24264 8.25 6C8.25 4.75736 9.25736 3.75 10.5 3.75ZM2.25 5.4375C1.93934 5.4375 1.6875 5.68934 1.6875 6C1.6875 6.31066 1.93934 6.5625 2.25 6.5625H6C6.31066 6.5625 6.5625 6.31066 6.5625 6C6.5625 5.68934 6.31066 5.4375 6 5.4375H2.25ZM12 11.4375C11.6893 11.4375 11.4375 11.6893 11.4375 12C11.4375 12.3107 11.6893 12.5625 12 12.5625H15.75C16.0607 12.5625 16.3125 12.3107 16.3125 12C16.3125 11.6893 16.0607 11.4375 15.75 11.4375H12ZM7.5 9.75H6C4.95159 9.75 4.07066 10.4671 3.82088 11.4375H2.25C1.93934 11.4375 1.6875 11.6893 1.6875 12C1.6875 12.3107 1.93934 12.5625 2.25 12.5625H3.82088C4.07066 13.5329 4.95159 14.25 6 14.25H7.5C8.74264 14.25 9.75 13.2426 9.75 12C9.75 10.7574 8.74264 9.75 7.5 9.75Z" fill="#418696"/>
</svg>
